HIERARCHY
ROOT Hips
{
	OFFSET -0.001795 -0.223333 0.028219
	CHANNELS 6 Xposition Yposition Zposition Zrotation Yrotation Xrotation 
	JOINT LeftUpLeg
	{
		OFFSET 0.069520 -0.091406 -0.006815
		CHANNELS 3 Zrotation Yrotation Xrotation
		JOINT LeftLeg
		{
			OFFSET 0.034277 -0.375199 -0.004496
			CHANNELS 3 Zrotation Yrotation Xrotation
			JOINT LeftFoot
			{
				OFFSET -0.013596 -0.397961 -0.043693
				CHANNELS 3 Zrotation Yrotation Xrotation
				JOINT LeftToe
				{
					OFFSET 0.026358 -0.055791 0.119288
					CHANNELS 3 Zrotation Yrotation Xrotation
					End Site
					{
						OFFSET 0.000000 0.000000 0.000000
					}
				}
			}
		}
	}
	JOINT RightUpLeg
	{
		OFFSET -0.067670 -0.090522 -0.004320
		CHANNELS 3 Zrotation Yrotation Xrotation
		JOINT RightLeg
		{
			OFFSET -0.038290 -0.382569 -0.008850
			CHANNELS 3 Zrotation Yrotation Xrotation
			JOINT RightFoot
			{
				OFFSET 0.015774 -0.398415 -0.042312
				CHANNELS 3 Zrotation Yrotation Xrotation
				JOINT RightToe
				{
					OFFSET -0.025372 -0.048144 0.123348
					CHANNELS 3 Zrotation Yrotation Xrotation
					End Site
					{
						OFFSET 0.000000 0.000000 0.000000
					}
				}
			}
		}
	}
	JOINT Spine
	{
		OFFSET -0.002533 0.108963 -0.026696
		CHANNELS 3 Zrotation Yrotation Xrotation
		JOINT Spine1
		{
			OFFSET 0.005487 0.135180 0.001092
			CHANNELS 3 Zrotation Yrotation Xrotation
			JOINT Spine2
			{
				OFFSET 0.001457 0.052922 0.025425
				CHANNELS 3 Zrotation Yrotation Xrotation
				JOINT Neck
				{
					OFFSET -0.002778 0.213870 -0.042857
					CHANNELS 3 Zrotation Yrotation Xrotation
					JOINT Head
					{
						OFFSET 0.005152 0.064970 0.051349
						CHANNELS 3 Zrotation Yrotation Xrotation
						End Site
						{
							OFFSET 0.000000 0.000000 0.000000
						}
					}
				}
				JOINT LeftShoulder
				{
					OFFSET 0.078845 0.121749 -0.034090
					CHANNELS 3 Zrotation Yrotation Xrotation
					JOINT LeftArm
					{
						OFFSET 0.090977 0.030469 -0.008868
						CHANNELS 3 Zrotation Yrotation Xrotation
						JOINT LeftForeArm
						{
							OFFSET 0.259612 -0.012772 -0.027456
							CHANNELS 3 Zrotation Yrotation Xrotation
							JOINT LeftHand
							{
								OFFSET 0.249234 0.008986 -0.001171
								CHANNELS 3 Zrotation Yrotation Xrotation
								End Site
								{
									OFFSET 0.000000 0.000000 0.000000
								}
							}
						}
					}
				}
				JOINT RightShoulder
				{
					OFFSET -0.081759 0.118833 -0.038615
					CHANNELS 3 Zrotation Yrotation Xrotation
					JOINT RightArm
					{
						OFFSET -0.096012 0.032551 -0.009143
						CHANNELS 3 Zrotation Yrotation Xrotation
						JOINT RightForeArm
						{
							OFFSET -0.253742 -0.013329 -0.021401
							CHANNELS 3 Zrotation Yrotation Xrotation
							JOINT RightHand
							{
								OFFSET -0.255298 0.007772 -0.005559
								CHANNELS 3 Zrotation Yrotation Xrotation
								End Site
								{
									OFFSET 0.000000 0.000000 0.000000
								}
							}
						}
					}
				}
			}
		}
	}
}
MOTION
Frames: 16
Frame Time: 0.050000
-0.045904 0.920045 -0.170083 -3.776935 -72.083845 4.516610 6.112982 1.719298 -6.212462 -1.503164 3.526757 13.827206 14.999195 25.971073 10.843611 0.000000 0.000000 0.000000 -1.200260 2.652901 -18.156661 8.997678 4.022045 24.638059 -1.120960 -4.890940 4.105400 0.000000 0.000000 0.000000 12.433077 -0.056208 9.304396 1.684698 4.338174 11.961515 -9.262530 -0.401222 9.380042 14.144985 -10.499252 -1.593354 0.000000 0.000000 0.000000 -2.041240 -43.105148 20.960390 6.194465 -47.508379 -2.936797 69.426955 -5.042331 -0.891486 0.000000 0.000000 0.000000 -3.413896 38.137793 9.173476 -12.566844 38.631132 -9.699492 -44.349032 14.353616 -7.902513 0.000000 0.000000 0.000000 
-0.048206 0.919530 -0.169725 -3.860267 -71.773651 4.610772 6.156786 1.717590 -6.221492 -1.365780 3.503560 14.001193 14.796153 25.824761 10.518861 0.000000 0.000000 0.000000 -1.088641 2.612278 -18.012713 8.966193 4.020331 24.689074 -1.373935 -5.075374 3.852660 0.000000 0.000000 0.000000 12.290173 -0.062819 8.642932 1.737822 4.423117 12.263453 -9.618075 -0.043571 9.213740 14.805527 -10.973556 -1.932973 0.000000 0.000000 0.000000 -2.287827 -43.287609 21.096453 5.746757 -47.272976 -2.830383 69.608123 -5.290653 -1.071108 0.000000 0.000000 0.000000 -3.949013 38.075239 9.276062 -12.759638 38.321226 -9.635918 -44.422022 13.466530 -7.512074 0.000000 0.000000 0.000000 
-0.049983 0.919085 -0.168497 -3.998812 -71.605423 4.753087 6.074258 1.687948 -6.312853 -1.117860 3.497741 14.347066 14.684956 25.789448 10.279077 0.000000 0.000000 0.000000 -1.162392 2.645587 -18.144919 9.279355 4.096091 25.136829 -1.526269 -5.429438 3.889443 0.000000 0.000000 0.000000 12.223917 -0.057219 8.205201 1.327353 4.288625 11.505972 -9.705358 1.027856 9.701814 15.073544 -11.273433 -2.137608 0.000000 0.000000 0.000000 -2.821971 -43.454883 21.364240 5.360410 -47.415418 -2.807794 69.276526 -6.299903 -1.801299 0.000000 0.000000 0.000000 -4.142994 37.854880 9.268945 -13.095369 37.988487 -9.610656 -43.642342 13.236999 -7.185462 0.000000 0.000000 0.000000 
-0.050988 0.918600 -0.166352 -3.657322 -71.281677 4.307136 5.943317 1.629922 -6.364454 -1.126209 3.612923 14.782767 14.428058 25.624483 9.855460 0.000000 0.000000 0.000000 -1.363239 2.602895 -18.005379 9.343576 4.116501 25.375112 -1.770046 -5.710497 3.734014 0.000000 0.000000 0.000000 11.926096 -0.075920 7.877312 1.500532 4.289362 11.829407 -10.166907 1.563895 9.168582 15.581975 -11.669107 -2.088070 0.000000 0.000000 0.000000 -3.468534 -43.523690 21.613293 4.584882 -47.685780 -2.685804 69.236341 -7.685993 -2.744297 0.000000 0.000000 0.000000 -3.937015 37.835970 9.363835 -13.376904 37.655424 -9.420625 -42.274818 13.165102 -6.677310 0.000000 0.000000 0.000000 
-0.051327 0.918254 -0.163394 -2.906073 -70.539696 3.680774 5.638727 1.514295 -6.674602 -1.150362 3.655769 15.090562 14.028506 25.244423 9.288362 0.000000 0.000000 0.000000 -1.825568 2.611579 -18.059292 9.497972 4.074549 25.551374 -2.166553 -6.404164 3.673583 0.000000 0.000000 0.000000 11.872038 -0.075899 7.510844 1.427629 4.127346 11.592862 -10.495004 2.519422 9.219535 16.110238 -12.136749 -2.282723 0.000000 0.000000 0.000000 -3.428617 -43.981528 21.567123 4.135712 -48.528544 -2.644122 68.822207 -8.834411 -3.547577 0.000000 0.000000 0.000000 -3.776386 37.500755 9.372816 -13.655121 37.007984 -9.117737 -41.181878 13.453838 -6.414941 0.000000 0.000000 0.000000 
-0.051070 0.917943 -0.159929 -2.119380 -69.578906 2.942478 5.233928 1.364102 -6.965908 -1.090877 3.653606 15.422637 13.533950 24.751339 8.617239 0.000000 0.000000 0.000000 -2.394019 2.547728 -17.813153 9.633899 3.925955 25.370897 -2.627028 -7.089641 3.519186 0.000000 0.000000 0.000000 11.553633 -0.096392 7.069254 1.812375 3.975863 11.973851 -10.749826 2.930888 8.791729 16.261935 -12.283171 -2.544743 0.000000 0.000000 0.000000 -4.576628 -44.322043 22.207948 3.576274 -48.957167 -2.654544 69.212354 -10.748613 -4.907084 0.000000 0.000000 0.000000 -3.093600 37.627111 9.536277 -13.636603 36.272622 -8.618620 -39.986727 13.864300 -6.131746 0.000000 0.000000 0.000000 
-0.050666 0.917662 -0.156361 -1.468338 -68.723499 2.386964 4.784169 1.219016 -7.371448 -0.931364 3.662445 15.892133 13.113605 24.289013 8.060188 0.000000 0.000000 0.000000 -2.883277 2.546913 -17.801613 9.725517 3.866217 25.486625 -3.029606 -7.847547 3.511283 0.000000 0.000000 0.000000 11.228985 -0.120742 6.833802 1.592929 3.868415 11.683725 -10.559192 3.752910 8.983617 16.734795 -12.671920 -2.786124 0.000000 0.000000 0.000000 -5.090720 -44.718782 22.511640 2.932657 -49.938176 -2.585199 69.135523 -12.770124 -6.281762 0.000000 0.000000 0.000000 -2.489638 37.377505 9.575793 -13.726778 35.550354 -8.250532 -39.257006 14.305586 -6.025467 0.000000 0.000000 0.000000 
-0.050311 0.917686 -0.152894 -1.041007 -67.817554 1.935827 4.287356 1.045698 -7.481969 -0.608937 3.495807 16.041291 12.729889 23.893508 7.576695 0.000000 0.000000 0.000000 -3.270987 2.423618 -17.263294 9.619734 3.664524 24.942450 -3.385366 -8.274960 3.323687 0.000000 0.000000 0.000000 10.884392 -0.131455 6.353721 1.944103 3.820784 12.285318 -10.633796 3.944665 8.682444 16.732306 -12.705240 -2.802818 0.000000 0.000000 0.000000 -5.980743 -44.760500 22.890020 1.637464 -50.327519 -2.272187 69.759256 -15.555947 -8.164008 0.000000 0.000000 0.000000 -2.075850 37.473657 9.741274 -13.336368 34.789958 -7.706235 -38.875583 14.154199 -5.798072 0.000000 0.000000 0.000000 
-0.050210 0.917856 -0.149811 -0.915184 -67.120307 1.798492 4.023779 0.942493 -7.418111 -0.498996 3.347999 15.899835 12.428256 23.619367 7.153130 0.000000 0.000000 0.000000 -3.482910 2.396204 -17.140228 9.610809 3.621047 25.013330 -3.599655 -8.850204 3.483758 0.000000 0.000000 0.000000 10.683066 -0.148133 6.259173 1.858389 3.753447 12.216598 -10.397855 4.545790 8.807807 17.068166 -12.998165 -2.735559 0.000000 0.000000 0.000000 -7.013533 -45.091689 23.490448 0.107059 -50.666481 -1.871505 70.612776 -18.931174 -10.552938 0.000000 0.000000 0.000000 -1.089557 37.403928 9.829764 -12.764238 34.258595 -7.196477 -39.222124 14.041944 -5.738410 0.000000 0.000000 0.000000 
-0.050234 0.917875 -0.147144 -0.853802 -66.601811 1.615257 3.855236 0.874089 -7.289353 -0.448797 3.291629 15.907566 12.163386 23.391101 6.763598 0.000000 0.000000 0.000000 -3.705642 2.305977 -16.703012 9.638203 3.507315 24.720419 -3.777794 -9.094170 3.432630 0.000000 0.000000 0.000000 10.403927 -0.167434 6.198026 2.191547 3.647873 12.543153 -10.269821 4.572907 8.529360 17.191117 -13.082003 -2.694455 0.000000 0.000000 0.000000 -8.419559 -45.033560 24.210180 -1.194182 -49.965865 -1.542709 71.729184 -22.447452 -13.146640 0.000000 0.000000 0.000000 -0.106712 37.903916 10.077339 -12.562275 33.498572 -6.788722 -39.492819 14.073432 -5.704294 0.000000 0.000000 0.000000 
-0.050199 0.917660 -0.144866 -0.989999 -66.594827 1.465467 3.884363 0.867385 -6.895935 -0.627503 3.354892 15.867517 12.058278 23.501014 6.416114 0.000000 0.000000 0.000000 -3.846406 2.261574 -16.465551 9.816016 3.532284 24.927628 -3.768193 -9.126677 3.491938 0.000000 0.000000 0.000000 10.341538 -0.166437 6.214921 2.300672 3.749759 12.984452 -9.999878 4.263223 8.293377 17.189012 -13.046314 -2.548308 0.000000 0.000000 0.000000 -9.053654 -45.068964 24.628619 -2.028015 -49.373194 -1.290874 72.615640 -24.805378 -14.972998 0.000000 0.000000 0.000000 0.429324 38.321725 10.230268 -12.668161 33.229346 -6.695406 -39.904603 13.297737 -5.461968 0.000000 0.000000 0.000000 
-0.050004 0.917535 -0.142926 -1.211991 -66.569709 1.637656 3.781776 0.833017 -6.676174 -0.548735 3.249283 15.614623 12.034895 23.706312 6.153141 0.000000 0.000000 0.000000 -3.940465 2.209559 -16.177124 9.851905 3.446059 24.563842 -3.774094 -8.981004 3.372376 0.000000 0.000000 0.000000 10.310415 -0.167957 6.199009 2.258325 3.696607 12.793582 -9.551229 4.099732 8.529901 16.624191 -12.620460 -2.797031 0.000000 0.000000 0.000000 -9.218739 -45.402515 24.981392 -2.190005 -48.419322 -1.228403 73.479274 -25.974682 -16.028565 0.000000 0.000000 0.000000 0.766664 38.880538 10.373412 -12.792276 32.446386 -6.533241 -40.669249 13.066461 -5.526935 0.000000 0.000000 0.000000 
-0.049843 0.917410 -0.141267 -1.501501 -67.060770 1.640624 3.901371 0.871648 -6.329789 -0.776692 3.423616 15.725372 12.147616 24.056088 6.097478 0.000000 0.000000 0.000000 -3.948675 2.191762 -16.059051 9.936269 3.536684 24.825098 -3.563318 -8.627759 3.429439 0.000000 0.000000 0.000000 10.391360 -0.155002 6.210526 2.466853 3.834741 13.274530 -9.573135 3.599102 8.248942 16.619226 -12.540128 -2.939788 0.000000 0.000000 0.000000 -9.049602 -45.324315 24.943208 -2.562705 -47.642961 -1.062368 74.185450 -25.984142 -16.167892 0.000000 0.000000 0.000000 1.383497 38.993540 10.373966 -13.044129 32.434433 -6.610359 -41.763259 12.971710 -5.685154 0.000000 0.000000 0.000000 
-0.049881 0.917435 -0.140020 -1.446507 -67.794150 1.229931 3.849395 0.873821 -5.889117 -0.958072 3.628267 15.910698 12.414426 24.531631 6.348413 0.000000 0.000000 0.000000 -3.983362 2.168769 -15.906364 9.851952 3.680554 25.187231 -3.272607 -8.059291 3.432414 0.000000 0.000000 0.000000 10.357534 -0.157699 6.587504 2.563563 3.790941 13.131851 -9.422692 3.213924 8.387480 16.035751 -12.144753 -2.573192 0.000000 0.000000 0.000000 -8.549821 -45.292993 24.795576 -1.909389 -46.517252 -1.201010 73.824327 -24.760062 -15.166706 0.000000 0.000000 0.000000 1.129790 39.072921 10.242825 -13.307113 32.776662 -6.892380 -43.069497 12.959041 -6.024259 0.000000 0.000000 0.000000 
-0.050054 0.917986 -0.139352 -1.635260 -68.555680 1.032973 4.025342 0.939266 -5.349085 -1.298179 3.858116 15.922256 12.701291 24.893756 6.779162 0.000000 0.000000 0.000000 -3.879774 2.149705 -15.799490 9.788603 3.851369 25.608804 -2.852728 -7.520833 3.685161 0.000000 0.000000 0.000000 10.329040 -0.149146 6.662414 3.227652 3.849459 13.888892 -9.693914 2.154897 7.787491 15.562158 -11.750084 -1.977336 0.000000 0.000000 0.000000 -7.815475 -45.025430 24.416677 -0.966501 -45.517215 -1.381816 72.914323 -21.970300 -12.922863 0.000000 0.000000 0.000000 1.216403 39.617383 10.308021 -13.340470 32.895124 -7.012851 -44.233927 13.261806 -6.420309 0.000000 0.000000 0.000000 
-0.050163 0.918169 -0.139276 -1.789584 -69.244556 0.848581 4.188466 1.002856 -4.824879 -1.594030 4.029876 15.833522 12.940901 25.278145 7.047631 0.000000 0.000000 0.000000 -3.870966 2.186075 -15.953405 10.045862 4.067361 26.349561 -2.508036 -7.270327 4.043996 0.000000 0.000000 0.000000 10.165047 -0.166150 7.223754 3.264991 3.712749 13.406519 -9.430038 1.986867 7.977282 15.495271 -11.697427 -1.573358 0.000000 0.000000 0.000000 -6.871755 -45.184447 24.083410 0.429874 -45.176616 -1.691992 71.387454 -19.410977 -10.861149 0.000000 0.000000 0.000000 1.841831 39.772968 10.225085 -13.781741 33.251768 -7.317486 -44.917662 13.807859 -6.783156 0.000000 0.000000 0.000000 
